<svg width="275" height="280" viewBox="0 0 275 280" fill="none" xmlns="http://www.w3.org/2000/svg">
<path d="M235.488 17.9565C233.255 27.6283 239.285 37.279 248.957 39.5119C258.629 41.7448 268.279 35.7144 270.512 26.0426C272.745 16.3708 266.715 6.72014 257.043 4.48723C247.371 2.25432 237.721 8.28473 235.488 17.9565Z" fill="url(#paint0_radial_244_3)"/>
<path d="M177.411 18.4012C175.423 27.0103 180.791 35.6007 189.4 37.5883C198.01 39.5759 206.6 34.208 208.588 25.5988C210.575 16.9897 205.207 8.3993 196.598 6.41172C187.989 4.42413 179.399 9.79199 177.411 18.4012Z" fill="url(#paint1_radial_244_3)"/>
<path d="M119.885 18.9724C118.213 26.2151 122.729 33.4419 129.971 35.114C137.214 36.7861 144.441 32.2703 146.113 25.0276C147.785 17.785 143.269 10.5581 136.027 8.88604C128.784 7.21394 121.557 11.7298 119.885 18.9724Z" fill="url(#paint2_radial_244_3)"/>
<path d="M62.423 19.5585C61.0746 25.3989 64.7162 31.2266 70.5566 32.575C76.3971 33.9233 82.2247 30.2818 83.5731 24.4413C84.9215 18.6009 81.2799 12.7732 75.4395 11.4248C69.5991 10.0765 63.7714 13.718 62.423 19.5585Z" fill="url(#paint3_radial_244_3)"/>
<path d="M4.52545 20.0437C3.44513 24.7231 6.36274 29.3923 11.0421 30.4726C15.7215 31.5529 20.3906 28.6353 21.4709 23.9559C22.5513 19.2765 19.6337 14.6074 14.9543 13.5271C10.2749 12.4468 5.60577 15.3644 4.52545 20.0437Z" fill="url(#paint4_radial_244_3)"/>
<path d="M235.677 78.0002C233.469 87.567 239.433 97.113 249 99.3217C258.567 101.53 268.113 95.5654 270.322 85.9985C272.53 76.4317 266.566 66.8857 256.999 64.6771C247.432 62.4684 237.886 68.4333 235.677 78.0002Z" fill="url(#paint5_radial_244_3)"/>
<path d="M177.519 78.4258C175.545 86.9757 180.876 95.5069 189.426 97.4808C197.975 99.4547 206.507 94.1238 208.481 85.5739C210.454 77.0241 205.124 68.4929 196.574 66.519C188.024 64.5451 179.493 69.876 177.519 78.4258Z" fill="url(#paint6_radial_244_3)"/>
<path d="M119.898 78.975C118.227 86.2108 122.739 93.4308 129.975 95.1013C137.211 96.7719 144.431 92.2603 146.101 85.0245C147.772 77.7886 143.26 70.5686 136.024 68.8981C128.788 67.2276 121.568 71.7392 119.898 78.975Z" fill="url(#paint7_radial_244_3)"/>
<path d="M62.3389 79.5393C60.9797 85.4264 64.6504 91.3007 70.5375 92.6598C76.4246 94.019 82.2989 90.3483 83.6581 84.4612C85.0172 78.5741 81.3466 72.6998 75.4594 71.3406C69.5723 69.9815 63.698 73.6521 62.3389 79.5393Z" fill="url(#paint8_radial_244_3)"/>
<path d="M4.35757 80.0046C3.2558 84.7768 6.23135 89.5387 11.0036 90.6405C15.7759 91.7423 20.5378 88.7667 21.6396 83.9944C22.7413 79.2221 19.7658 74.4603 14.9935 73.3585C10.2212 72.2567 5.45934 75.2323 4.35757 80.0046Z" fill="url(#paint9_radial_244_3)"/>
<path d="M236.177 138.115C234.032 147.406 239.825 156.677 249.116 158.822C258.407 160.967 267.678 155.174 269.823 145.883C271.968 136.592 266.175 127.321 256.884 125.176C247.593 123.031 238.322 128.824 236.177 138.115Z" fill="url(#paint10_radial_244_3)"/>
<path d="M177.802 138.491C175.865 146.884 181.098 155.259 189.491 157.197C197.885 159.135 206.26 153.902 208.198 145.508C210.136 137.115 204.902 128.74 196.509 126.802C188.115 124.864 179.74 130.098 177.802 138.491Z" fill="url(#paint11_radial_244_3)"/>
<path d="M119.931 138.983C118.265 146.201 122.765 153.403 129.983 155.069C137.201 156.736 144.403 152.235 146.069 145.017C147.736 137.8 143.235 130.598 136.017 128.931C128.8 127.265 121.598 131.765 119.931 138.983Z" fill="url(#paint12_radial_244_3)"/>
<path d="M62.1192 139.489C60.732 145.498 64.4784 151.493 70.4871 152.88C76.4958 154.268 82.4914 150.521 83.8786 144.512C85.2658 138.504 81.5194 132.508 75.5107 131.121C69.502 129.734 63.5064 133.48 62.1192 139.489Z" fill="url(#paint13_radial_244_3)"/>
<path d="M3.94249 139.908C2.78776 144.91 5.90634 149.901 10.9081 151.055C15.9098 152.21 20.9005 149.091 22.0553 144.09C23.21 139.088 20.0914 134.097 15.0897 132.943C10.088 131.788 5.09723 134.906 3.94249 139.908Z" fill="url(#paint14_radial_244_3)"/>
<path d="M237.06 198.32C235.028 207.124 240.517 215.908 249.32 217.94C258.124 219.973 266.908 214.484 268.94 205.68C270.973 196.877 265.484 188.092 256.68 186.06C247.877 184.028 239.092 189.517 237.06 198.32Z" fill="url(#paint15_radial_244_3)"/>
<path d="M178.332 198.614C176.461 206.716 181.513 214.8 189.614 216.67C197.716 218.541 205.801 213.489 207.671 205.388C209.541 197.286 204.49 189.201 196.388 187.331C188.286 185.461 180.202 190.512 178.332 198.614Z" fill="url(#paint16_radial_244_3)"/>
<path d="M120.037 199.008C118.384 206.167 122.848 213.311 130.008 214.964C137.168 216.617 144.312 212.153 145.965 204.994C147.617 197.834 143.153 190.69 135.994 189.037C128.834 187.384 121.69 191.848 120.037 199.008Z" fill="url(#paint17_radial_244_3)"/>
<path d="M61.826 199.422C60.4013 205.593 64.2491 211.75 70.4202 213.175C76.5914 214.6 82.7491 210.752 84.1738 204.581C85.5985 198.41 81.7508 192.252 75.5796 190.827C69.4084 189.403 63.2508 193.25 61.826 199.422Z" fill="url(#paint18_radial_244_3)"/>
<path d="M3.39875 199.782C2.17457 205.085 5.4807 210.376 10.7832 211.6C16.0857 212.824 21.3766 209.518 22.6008 204.215C23.825 198.913 20.5188 193.622 15.2163 192.398C9.91384 191.173 4.62293 194.48 3.39875 199.782Z" fill="url(#paint19_radial_244_3)"/>
<path d="M238.488 258.65C236.638 266.664 241.635 274.661 249.65 276.512C257.664 278.362 265.661 273.365 267.511 265.35C269.362 257.336 264.365 249.339 256.35 247.488C248.336 245.638 240.338 250.635 238.488 258.65Z" fill="url(#paint20_radial_244_3)"/>
<path d="M179.295 258.837C177.547 266.406 182.267 273.958 189.835 275.705C197.404 277.453 204.956 272.734 206.704 265.165C208.451 257.596 203.732 250.044 196.163 248.296C188.594 246.549 181.042 251.268 179.295 258.837Z" fill="url(#paint21_radial_244_3)"/>
<path d="M120.419 259.095C118.815 266.042 123.147 272.975 130.094 274.579C137.042 276.183 143.975 271.851 145.579 264.903C147.183 257.955 142.851 251.023 135.903 249.419C128.955 247.815 122.023 252.147 120.419 259.095Z" fill="url(#paint22_radial_244_3)"/>
<path d="M61.6624 259.382C60.2168 265.644 64.121 271.892 70.3827 273.337C76.6443 274.783 82.8923 270.879 84.3379 264.617C85.7836 258.355 81.8794 252.107 75.6177 250.662C69.3561 249.216 63.1081 253.12 61.6624 259.382Z" fill="url(#paint23_radial_244_3)"/>
<path d="M2.87103 259.662C1.57952 265.256 5.0675 270.838 10.6617 272.129C16.2558 273.421 21.8377 269.933 23.1293 264.339C24.4208 258.745 20.9328 253.163 15.3386 251.871C9.74448 250.58 4.16254 254.068 2.87103 259.662Z" fill="url(#paint24_radial_244_3)"/>
<defs>
<radialGradient id="paint0_radial_244_3" cx="0" cy="0" r="1" gradientUnits="userSpaceOnUse" gradientTransform="translate(268.374 7.10332) rotate(135.905) scale(42.8147 460.65)">
<stop offset="0.109375" stop-color="#A471FE"/>
<stop offset="0.817708" stop-color="#75B6F8"/>
</radialGradient>
<radialGradient id="paint1_radial_244_3" cx="0" cy="0" r="1" gradientUnits="userSpaceOnUse" gradientTransform="translate(206.685 8.74038) rotate(135.905) scale(38.1108 410.039)">
<stop offset="0.109375" stop-color="#A471FE"/>
<stop offset="0.817708" stop-color="#75B6F8"/>
</radialGradient>
<radialGradient id="paint2_radial_244_3" cx="0" cy="0" r="1" gradientUnits="userSpaceOnUse" gradientTransform="translate(144.512 10.8451) rotate(135.905) scale(32.0615 344.954)">
<stop offset="0.109375" stop-color="#A471FE"/>
<stop offset="0.817708" stop-color="#75B6F8"/>
</radialGradient>
<radialGradient id="paint3_radial_244_3" cx="0" cy="0" r="1" gradientUnits="userSpaceOnUse" gradientTransform="translate(82.2822 13.0046) rotate(135.905) scale(25.8542 278.17)">
<stop offset="0.109375" stop-color="#A471FE"/>
<stop offset="0.817708" stop-color="#75B6F8"/>
</radialGradient>
<radialGradient id="paint4_radial_244_3" cx="0" cy="0" r="1" gradientUnits="userSpaceOnUse" gradientTransform="translate(20.4367 14.7928) rotate(135.905) scale(20.7145 222.87)">
<stop offset="0.109375" stop-color="#A471FE"/>
<stop offset="0.817708" stop-color="#75B6F8"/>
</radialGradient>
<radialGradient id="paint5_radial_244_3" cx="0" cy="0" r="1" gradientUnits="userSpaceOnUse" gradientTransform="translate(268.207 67.2648) rotate(135.905) scale(42.3501 455.651)">
<stop offset="0.109375" stop-color="#A471FE"/>
<stop offset="0.817708" stop-color="#75B6F8"/>
</radialGradient>
<radialGradient id="paint6_radial_244_3" cx="0" cy="0" r="1" gradientUnits="userSpaceOnUse" gradientTransform="translate(206.591 68.8316) rotate(135.905) scale(37.8482 407.215)">
<stop offset="0.109375" stop-color="#A471FE"/>
<stop offset="0.817708" stop-color="#75B6F8"/>
</radialGradient>
<radialGradient id="paint7_radial_244_3" cx="0" cy="0" r="1" gradientUnits="userSpaceOnUse" gradientTransform="translate(144.502 70.8553) rotate(135.905) scale(32.0313 344.629)">
<stop offset="0.109375" stop-color="#A471FE"/>
<stop offset="0.817708" stop-color="#75B6F8"/>
</radialGradient>
<radialGradient id="paint8_radial_244_3" cx="0" cy="0" r="1" gradientUnits="userSpaceOnUse" gradientTransform="translate(82.3568 72.933) rotate(135.905) scale(26.0609 280.393)">
<stop offset="0.109375" stop-color="#A471FE"/>
<stop offset="0.817708" stop-color="#75B6F8"/>
</radialGradient>
<radialGradient id="paint9_radial_244_3" cx="0" cy="0" r="1" gradientUnits="userSpaceOnUse" gradientTransform="translate(20.5847 74.6493) rotate(135.905) scale(21.1258 227.295)">
<stop offset="0.109375" stop-color="#A471FE"/>
<stop offset="0.817708" stop-color="#75B6F8"/>
</radialGradient>
<radialGradient id="paint10_radial_244_3" cx="0" cy="0" r="1" gradientUnits="userSpaceOnUse" gradientTransform="translate(267.77 127.689) rotate(135.905) scale(41.1291 442.514)">
<stop offset="0.109375" stop-color="#A471FE"/>
<stop offset="0.817708" stop-color="#75B6F8"/>
</radialGradient>
<radialGradient id="paint11_radial_244_3" cx="0" cy="0" r="1" gradientUnits="userSpaceOnUse" gradientTransform="translate(206.343 129.072) rotate(135.905) scale(37.1557 399.764)">
<stop offset="0.109375" stop-color="#A471FE"/>
<stop offset="0.817708" stop-color="#75B6F8"/>
</radialGradient>
<radialGradient id="paint12_radial_244_3" cx="0" cy="0" r="1" gradientUnits="userSpaceOnUse" gradientTransform="translate(144.474 130.884) rotate(135.905) scale(31.9516 343.772)">
<stop offset="0.109375" stop-color="#A471FE"/>
<stop offset="0.817708" stop-color="#75B6F8"/>
</radialGradient>
<radialGradient id="paint13_radial_244_3" cx="0" cy="0" r="1" gradientUnits="userSpaceOnUse" gradientTransform="translate(82.5505 132.746) rotate(135.905) scale(26.5991 286.184)">
<stop offset="0.109375" stop-color="#A471FE"/>
<stop offset="0.817708" stop-color="#75B6F8"/>
</radialGradient>
<radialGradient id="paint14_radial_244_3" cx="0" cy="0" r="1" gradientUnits="userSpaceOnUse" gradientTransform="translate(20.9497 134.295) rotate(135.905) scale(22.1414 238.222)">
<stop offset="0.109375" stop-color="#A471FE"/>
<stop offset="0.817708" stop-color="#75B6F8"/>
</radialGradient>
<radialGradient id="paint15_radial_244_3" cx="0" cy="0" r="1" gradientUnits="userSpaceOnUse" gradientTransform="translate(266.994 188.441) rotate(135.905) scale(38.9709 419.293)">
<stop offset="0.109375" stop-color="#A471FE"/>
<stop offset="0.817708" stop-color="#75B6F8"/>
</radialGradient>
<radialGradient id="paint16_radial_244_3" cx="0" cy="0" r="1" gradientUnits="userSpaceOnUse" gradientTransform="translate(205.88 189.522) rotate(135.905) scale(35.865 385.877)">
<stop offset="0.109375" stop-color="#A471FE"/>
<stop offset="0.817708" stop-color="#75B6F8"/>
</radialGradient>
<radialGradient id="paint17_radial_244_3" cx="0" cy="0" r="1" gradientUnits="userSpaceOnUse" gradientTransform="translate(144.382 190.974) rotate(135.905) scale(31.6939 341)">
<stop offset="0.109375" stop-color="#A471FE"/>
<stop offset="0.817708" stop-color="#75B6F8"/>
</radialGradient>
<radialGradient id="paint18_radial_244_3" cx="0" cy="0" r="1" gradientUnits="userSpaceOnUse" gradientTransform="translate(82.8098 192.497) rotate(135.905) scale(27.3183 293.921)">
<stop offset="0.109375" stop-color="#A471FE"/>
<stop offset="0.817708" stop-color="#75B6F8"/>
</radialGradient>
<radialGradient id="paint19_radial_244_3" cx="0" cy="0" r="1" gradientUnits="userSpaceOnUse" gradientTransform="translate(21.4288 193.832) rotate(135.905) scale(23.4729 252.548)">
<stop offset="0.109375" stop-color="#A471FE"/>
<stop offset="0.817708" stop-color="#75B6F8"/>
</radialGradient>
<radialGradient id="paint20_radial_244_3" cx="0" cy="0" r="1" gradientUnits="userSpaceOnUse" gradientTransform="translate(265.74 249.656) rotate(135.905) scale(35.4785 381.719)">
<stop offset="0.109375" stop-color="#A471FE"/>
<stop offset="0.817708" stop-color="#75B6F8"/>
</radialGradient>
<radialGradient id="paint21_radial_244_3" cx="0" cy="0" r="1" gradientUnits="userSpaceOnUse" gradientTransform="translate(205.031 250.344) rotate(135.905) scale(33.5052 360.487)">
<stop offset="0.109375" stop-color="#A471FE"/>
<stop offset="0.817708" stop-color="#75B6F8"/>
</radialGradient>
<radialGradient id="paint22_radial_244_3" cx="0" cy="0" r="1" gradientUnits="userSpaceOnUse" gradientTransform="translate(144.043 251.298) rotate(135.905) scale(30.7564 330.913)">
<stop offset="0.109375" stop-color="#A471FE"/>
<stop offset="0.817708" stop-color="#75B6F8"/>
</radialGradient>
<radialGradient id="paint23_radial_244_3" cx="0" cy="0" r="1" gradientUnits="userSpaceOnUse" gradientTransform="translate(82.9539 252.355) rotate(135.905) scale(27.7189 298.232)">
<stop offset="0.109375" stop-color="#A471FE"/>
<stop offset="0.817708" stop-color="#75B6F8"/>
</radialGradient>
<radialGradient id="paint24_radial_244_3" cx="0" cy="0" r="1" gradientUnits="userSpaceOnUse" gradientTransform="translate(21.8928 253.384) rotate(135.905) scale(24.764 266.439)">
<stop offset="0.109375" stop-color="#A471FE"/>
<stop offset="0.817708" stop-color="#75B6F8"/>
</radialGradient>
</defs>
</svg>
